<svg width="24" height="24" viewBox="0 0 24 24" fill="none" xmlns="http://www.w3.org/2000/svg">
<path d="M8.14798 6.55618C8.14769 7.18951 7.7589 7.75942 7.16493 7.99718C6.57096 8.23495 5.89043 8.09309 5.44423 7.6385C4.99803 7.18391 4.87528 6.50736 5.13384 5.92788C5.39241 5.3484 5.98067 4.9817 6.62123 5.0007C7.47202 5.02594 8.14837 5.71501 8.14798 6.55618ZM8.1952 9.26272H5.04726V19H8.1952V9.26272ZM13.169 9.26272H10.0367V19H13.1375V13.8902C13.1375 11.0437 16.8914 10.7793 16.8914 13.8902V19H20V12.8325C20 8.03389 14.4439 8.21277 13.1375 10.5693L13.169 9.26272Z" fill="white"/>
</svg>
