<svg width="24" height="24" viewBox="0 0 24 24" fill="none" xmlns="http://www.w3.org/2000/svg">
<path d="M20.4702 6.71376C19.834 6.99517 19.1593 7.17999 18.4685 7.26209C19.1967 6.82662 19.7416 6.14127 20.0019 5.33376C19.3185 5.74043 18.5694 6.02543 17.7885 6.17959C17.264 5.61841 16.5688 5.24623 15.811 5.12091C15.0532 4.9956 14.2752 5.12417 13.5979 5.48664C12.9207 5.84911 12.3822 6.42516 12.0661 7.12525C11.7501 7.82534 11.6742 8.61024 11.8502 9.35793C10.4645 9.28847 9.10882 8.92836 7.87128 8.30098C6.63374 7.6736 5.54198 6.79297 4.66687 5.71626C4.35712 6.2483 4.19434 6.85312 4.19521 7.46876C4.19521 8.67709 4.81021 9.74459 5.74521 10.3696C5.19188 10.3522 4.65074 10.2027 4.16687 9.93376V9.97709C4.16704 10.7818 4.44552 11.5618 4.95508 12.1846C5.46465 12.8075 6.17394 13.235 6.96271 13.3946C6.44905 13.5338 5.91046 13.5543 5.38771 13.4546C5.6101 14.1473 6.04355 14.7531 6.62737 15.1872C7.21119 15.6213 7.91615 15.8619 8.64354 15.8754C7.92061 16.4432 7.09286 16.8629 6.20761 17.1106C5.32236 17.3582 4.39698 17.429 3.48438 17.3188C5.07746 18.3433 6.93196 18.8872 8.82604 18.8854C15.2369 18.8854 18.7427 13.5746 18.7427 8.96876C18.7427 8.81876 18.7385 8.66709 18.7319 8.51876C19.4143 8.02557 20.0032 7.41461 20.471 6.71459L20.4702 6.71376Z" fill="white"/>
</svg>
