<svg width="30" height="28" viewBox="0 0 30 28" fill="none" xmlns="http://www.w3.org/2000/svg">
<path d="M15.0013 5.31993V25.3199M9.33463 9.31993H6.33464M10.3346 13.3199H6.33464M28.3346 20.3199V4.22659C28.3346 2.62659 27.028 1.43993 25.4413 1.57326H25.3613C22.5613 1.81326 18.308 3.23993 15.9346 4.73326L15.708 4.87993C15.3213 5.11993 14.6813 5.11993 14.2946 4.87993L13.9613 4.67993C11.588 3.19993 7.34797 1.78659 4.54797 1.55993C2.9613 1.42659 1.66797 2.62659 1.66797 4.21326V20.3199C1.66797 21.5999 2.70797 22.7999 3.98797 22.9599L4.37464 23.0133C7.26797 23.3999 11.7346 24.8666 14.2946 26.2666L14.348 26.2933C14.708 26.4933 15.2813 26.4933 15.628 26.2933C18.188 24.8799 22.668 23.3999 25.5746 23.0133L26.0146 22.9599C27.2946 22.7999 28.3346 21.5999 28.3346 20.3199Z" stroke="white" stroke-width="2" stroke-linecap="round" stroke-linejoin="round"/>
</svg>
