<svg width="32" height="32" viewBox="0 0 32 32" fill="none" xmlns="http://www.w3.org/2000/svg">
<path d="M10.6677 7.99984V6.93317C10.6677 4.57317 10.6677 2.6665 14.9344 2.6665H17.0677C21.3344 2.6665 21.3344 4.57317 21.3344 6.93317V7.99984M10.6677 29.3332H21.3344C26.6944 29.3332 27.6544 27.1865 27.9344 24.5732L28.9344 13.9065C29.2944 10.6532 28.3611 7.99984 22.6677 7.99984H9.3344C3.64107 7.99984 2.70774 10.6532 3.06774 13.9065L4.06774 24.5732C4.34774 27.1865 5.30774 29.3332 10.6677 29.3332Z" stroke="white" stroke-width="2" stroke-miterlimit="10" stroke-linecap="round" stroke-linejoin="round"/>
<path d="M18.6655 18.6932V17.3332C18.6655 15.9998 18.6655 15.9998 17.3322 15.9998H14.6655C13.3322 15.9998 13.3322 15.9998 13.3322 17.3332V18.7065M18.6655 18.6932C18.6655 20.1465 18.6522 21.3332 15.9989 21.3332C13.3589 21.3332 13.3322 20.1598 13.3322 18.7065M18.6655 18.6932C22.3511 18.2343 25.8604 16.849 28.8655 14.6665M13.3322 18.7065C9.87885 18.3198 6.49219 17.0798 3.49219 15.0265" stroke="white" stroke-width="2" stroke-miterlimit="10" stroke-linecap="round" stroke-linejoin="round"/>
</svg>
