<svg width="32" height="32" viewBox="0 0 32 32" fill="none" xmlns="http://www.w3.org/2000/svg">
<path d="M4.46652 2.6665H16.3332C17.3198 2.6665 18.1332 3.47984 18.1332 4.4665V6.43984C18.1332 7.15984 17.6798 8.05317 17.2398 8.5065L13.3732 11.9198C12.8398 12.3732 12.4798 13.2665 12.4798 13.9865V17.8532C12.4798 18.3865 12.1198 19.1065 11.6665 19.3865L10.4132 20.1998C9.23985 20.9198 7.62652 20.1065 7.62652 18.6665V13.9065C7.62652 13.2798 7.26652 12.4665 6.90652 12.0132L3.49318 8.41317C3.03985 7.95984 2.67985 7.15984 2.67985 6.61317V4.5465C2.66652 3.47984 3.47985 2.6665 4.46652 2.6665Z" stroke="white" stroke-width="2" stroke-miterlimit="10" stroke-linecap="round" stroke-linejoin="round"/>
<path d="M2.66797 16.0001V20.0001C2.66797 26.6668 5.33464 29.3335 12.0013 29.3335H20.0013C26.668 29.3335 29.3346 26.6668 29.3346 20.0001V12.0001C29.3346 7.84015 28.2946 5.22682 25.8813 3.86682C25.2013 3.48015 23.8413 3.18682 22.6013 2.98682M17.3346 17.3335H24.0013M14.668 22.6668H24.0013" stroke="white" stroke-width="2" stroke-linecap="round" stroke-linejoin="round"/>
</svg>
