<svg width="32" height="32" viewBox="0 0 32 32" fill="none" xmlns="http://www.w3.org/2000/svg">
<path d="M11.3346 25.3332H10.668C5.33464 25.3332 2.66797 23.9998 2.66797 17.3332V10.6665C2.66797 5.33317 5.33464 2.6665 10.668 2.6665H21.3346C26.668 2.6665 29.3346 5.33317 29.3346 10.6665V17.3332C29.3346 22.6665 26.668 25.3332 21.3346 25.3332H20.668C20.2546 25.3332 19.8546 25.5332 19.6013 25.8665L17.6013 28.5332C16.7213 29.7065 15.2813 29.7065 14.4013 28.5332L12.4013 25.8665C12.188 25.5732 11.6946 25.3332 11.3346 25.3332Z" stroke="white" stroke-width="2" stroke-miterlimit="10" stroke-linecap="round" stroke-linejoin="round"/>
<path d="M9.33203 10.6665H22.6654M9.33203 17.3332H17.332" stroke="white" stroke-width="2" stroke-linecap="round" stroke-linejoin="round"/>
</svg>
