<svg width="77" height="20" viewBox="0 0 77 20" fill="none" xmlns="http://www.w3.org/2000/svg">
<path d="M0.156 19V0.849999H7.328C8.604 0.849999 9.715 1.07733 10.661 1.532C11.607 1.97933 12.3403 2.632 12.861 3.49C13.3817 4.34067 13.642 5.37467 13.642 6.592C13.642 7.45733 13.5063 8.24933 13.235 8.968C12.9637 9.67933 12.5677 10.3027 12.047 10.838C11.5337 11.366 10.8993 11.7913 10.144 12.114L16.018 19H9.88L5.007 12.708H4.996V19H0.156ZM4.996 8.704H5.744C6.36 8.704 6.87333 8.63067 7.284 8.484C7.702 8.33733 8.01367 8.11733 8.219 7.824C8.43167 7.52333 8.538 7.15667 8.538 6.724C8.538 6.05667 8.29967 5.55433 7.823 5.217C7.35367 4.87233 6.66067 4.7 5.744 4.7H4.996V8.704ZM14.9728 19L22.3648 0.849999H26.8528L34.2448 19H29.0308L27.9418 15.986H21.2758L20.1868 19H14.9728ZM22.9258 11.74H26.2918L24.6088 7.428L22.9258 11.74ZM35.949 19V0.849999H46.817V5.096H39.799L40.789 4.106V8.77L39.799 7.78H46.333V12.026H39.799L40.789 11.036V19H35.949ZM49.8064 19V0.849999H54.6464V19H49.8064ZM74.7987 19.594C74.2341 19.3813 73.6731 19.1393 73.1157 18.868C72.5657 18.5893 72.0194 18.2813 71.4767 17.944C70.0101 18.8827 68.3967 19.352 66.6367 19.352C65.3681 19.352 64.1801 19.11 63.0727 18.626C61.9654 18.142 60.9937 17.471 60.1577 16.613C59.3217 15.7477 58.6654 14.7467 58.1887 13.61C57.7194 12.466 57.4847 11.2413 57.4847 9.936C57.4847 8.63067 57.7194 7.40967 58.1887 6.273C58.6654 5.129 59.3217 4.128 60.1577 3.27C60.9937 2.40467 61.9654 1.73 63.0727 1.246C64.1801 0.761999 65.3681 0.519999 66.6367 0.519999C67.9054 0.519999 69.0934 0.761999 70.2007 1.246C71.3081 1.73 72.2797 2.40467 73.1157 3.27C73.9517 4.128 74.6044 5.129 75.0737 6.273C75.5504 7.40967 75.7887 8.63067 75.7887 9.936C75.7887 10.7573 75.6897 11.5567 75.4917 12.334C75.3011 13.1113 75.0114 13.852 74.6227 14.556C75.0114 14.6953 75.3964 14.8273 75.7777 14.952C76.1664 15.0693 76.5514 15.1793 76.9327 15.282L74.7987 19.594ZM66.6367 14.688C66.7467 14.688 66.8604 14.6843 66.9777 14.677C67.0951 14.6623 67.2014 14.6513 67.2967 14.644C66.9081 14.2627 66.5414 13.874 66.1967 13.478C65.8521 13.0747 65.5367 12.664 65.2507 12.246L67.2967 9.672C68.1841 10.6327 69.1447 11.4687 70.1787 12.18C70.3107 11.8353 70.4097 11.4723 70.4757 11.091C70.5417 10.7097 70.5747 10.3247 70.5747 9.936C70.5747 9.21733 70.4794 8.56833 70.2887 7.989C70.1054 7.40233 69.8414 6.9 69.4967 6.482C69.1521 6.064 68.7377 5.745 68.2537 5.525C67.7697 5.29767 67.2307 5.184 66.6367 5.184C66.0427 5.184 65.5037 5.29767 65.0197 5.525C64.5357 5.745 64.1214 6.064 63.7767 6.482C63.4321 6.9 63.1644 7.40233 62.9737 7.989C62.7904 8.56833 62.6987 9.21733 62.6987 9.936C62.6987 10.6547 62.7904 11.3073 62.9737 11.894C63.1644 12.4733 63.4321 12.972 63.7767 13.39C64.1214 13.808 64.5357 14.1307 65.0197 14.358C65.5037 14.578 66.0427 14.688 66.6367 14.688Z" fill="white"/>
</svg>
