<svg width="32" height="32" viewBox="0 0 32 32" fill="none" xmlns="http://www.w3.org/2000/svg">
<path d="M27.8811 14.8268C27.8811 21.3468 23.1478 27.4534 16.6811 29.2401C16.2411 29.3601 15.7611 29.3601 15.3211 29.2401C8.85443 27.4534 4.12109 21.3468 4.12109 14.8268V8.97342C4.12109 7.88009 4.94776 6.64009 5.97443 6.22676L13.4011 3.18676C15.0678 2.50676 16.9478 2.50676 18.6144 3.18676L26.0411 6.22676C27.0544 6.64009 27.8944 7.88009 27.8944 8.97342L27.8811 14.8268Z" stroke="white" stroke-width="2" stroke-linecap="round" stroke-linejoin="round"/>
<path d="M15.9987 16.6668C16.7059 16.6668 17.3842 16.3859 17.8843 15.8858C18.3844 15.3857 18.6654 14.7074 18.6654 14.0002C18.6654 13.2929 18.3844 12.6146 17.8843 12.1145C17.3842 11.6144 16.7059 11.3335 15.9987 11.3335C15.2915 11.3335 14.6132 11.6144 14.1131 12.1145C13.613 12.6146 13.332 13.2929 13.332 14.0002C13.332 14.7074 13.613 15.3857 14.1131 15.8858C14.6132 16.3859 15.2915 16.6668 15.9987 16.6668ZM15.9987 16.6668V20.6668" stroke="white" stroke-width="2" stroke-miterlimit="10" stroke-linecap="round" stroke-linejoin="round"/>
</svg>
