<svg width="32" height="32" viewBox="0 0 32 32" fill="none" xmlns="http://www.w3.org/2000/svg">
<path d="M29.3346 8.66667H21.3346M8.0013 8.66667H2.66797M29.3346 23.3333H24.0013M10.668 23.3333H2.66797M13.3346 13.3333C13.9475 13.3333 14.5543 13.2126 15.1205 12.9781C15.6867 12.7436 16.2011 12.3998 16.6345 11.9665C17.0678 11.5332 17.4116 11.0187 17.6461 10.4525C17.8806 9.88634 18.0013 9.2795 18.0013 8.66667C18.0013 8.05383 17.8806 7.447 17.6461 6.88081C17.4116 6.31462 17.0678 5.80018 16.6345 5.36684C16.2011 4.9335 15.6867 4.58975 15.1205 4.35523C14.5543 4.12071 13.9475 4 13.3346 4C12.097 4 10.91 4.49167 10.0348 5.36684C9.15963 6.24201 8.66797 7.42899 8.66797 8.66667C8.66797 9.90434 9.15963 11.0913 10.0348 11.9665C10.91 12.8417 12.097 13.3333 13.3346 13.3333ZM18.668 28C19.9056 28 21.0926 27.5083 21.9678 26.6332C22.843 25.758 23.3346 24.571 23.3346 23.3333C23.3346 22.0957 22.843 20.9087 21.9678 20.0335C21.0926 19.1583 19.9056 18.6667 18.668 18.6667C17.4303 18.6667 16.2433 19.1583 15.3681 20.0335C14.493 20.9087 14.0013 22.0957 14.0013 23.3333C14.0013 24.571 14.493 25.758 15.3681 26.6332C16.2433 27.5083 17.4303 28 18.668 28Z" stroke="white" stroke-width="2" stroke-miterlimit="10" stroke-linecap="round" stroke-linejoin="round"/>
</svg>
